<svg id="constructor" xmlns="http://www.w3.org/2000/svg" width="24" height="24" viewBox="0 0 24 24">
  <g id="Сгруппировать_9" data-name="Сгруппировать 9">
    <rect id="Прямоугольник_39" data-name="Прямоугольник 39" width="24" height="24" fill="none"/>
    <rect id="Прямоугольник_40" data-name="Прямоугольник 40" width="24" height="24" fill="none"/>
  </g>
  <g id="Сгруппировать_11" data-name="Сгруппировать 11">
    <g id="Сгруппировать_10" data-name="Сгруппировать 10">
      <path id="Контур_29" data-name="Контур 29" d="M16.24,11.51l1.57-1.57L14.06,6.19,12.49,7.76,8.35,3.63a2,2,0,0,0-2.83,0l-1.9,1.9a2,2,0,0,0,0,2.83l4.13,4.13L3.15,17.1a.491.491,0,0,0-.15.36V20.5a.5.5,0,0,0,.5.5H6.54a.469.469,0,0,0,.35-.15l4.62-4.62,4.13,4.13a2.025,2.025,0,0,0,2.83,0l1.9-1.9a2,2,0,0,0,0-2.83Zm-7.06-.44L5.04,6.94l1.89-1.9h0L8.2,6.31l-.47.49A1,1,0,0,0,9.14,8.21l.48-.48,1.45,1.45Zm7.88,7.89-4.13-4.13,1.9-1.9,1.45,1.45-.48.48a1,1,0,0,0,1.41,1.41l.48-.48,1.27,1.27Z" fill="#fff"/>
      <path id="Контур_30" data-name="Контур 30" d="M20.71,7.04a1,1,0,0,0,0-1.41L18.37,3.29a1.009,1.009,0,0,0-1.41,0L15.13,5.12l3.75,3.75Z" fill="#fff"/>
    </g>
  </g>
</svg>
