<svg id="add_a_photo" xmlns="http://www.w3.org/2000/svg" width="46.432" height="46.432" viewBox="0 0 46.432 46.432">
  <path id="Контур_21" data-name="Контур 21" d="M0,0H46.432V46.432H0Z" fill="none"/>
  <path id="Контур_22" data-name="Контур 22" d="M5.8,14.543a1.935,1.935,0,0,0,3.869,0V10.673h3.869a1.935,1.935,0,1,0,0-3.869H9.673V2.935a1.935,1.935,0,0,0-3.869,0V6.8H1.935a1.935,1.935,0,1,0,0,3.869H5.8Z" transform="translate(0 0.935)" fill="#fff"/>
  <ellipse id="Эллипс_7" data-name="Эллипс 7" cx="5.586" cy="6.051" rx="5.586" ry="6.051" transform="translate(19.55 20.481)" fill="#fff"/>
  <path id="Контур_23" data-name="Контур 23" d="M37.824,7.869H31.691l-2.4-2.612A3.851,3.851,0,0,0,26.448,4H14.066a3.838,3.838,0,0,1-3.328,5.8H8.8v1.935a3.881,3.881,0,0,1-3.869,3.869A3.874,3.874,0,0,1,3,15.066V34.955a3.881,3.881,0,0,0,3.869,3.869H37.824a3.881,3.881,0,0,0,3.869-3.869V11.739A3.881,3.881,0,0,0,37.824,7.869ZM22.347,33.02a9.673,9.673,0,1,1,9.673-9.673A9.677,9.677,0,0,1,22.347,33.02Z" transform="translate(2.804 3.739)" fill="#fff"/>
</svg>
