<svg id="close" xmlns="http://www.w3.org/2000/svg" width="26" height="26" viewBox="0 0 26 26">
  <path id="Контур_24" data-name="Контур 24" d="M0,0H26V26H0Z" fill="none"/>
  <path id="Контур_25" data-name="Контур 25" d="M20.256,5.756a1.147,1.147,0,0,0-1.624,0L13,11.376,7.368,5.744A1.148,1.148,0,0,0,5.744,7.368L11.376,13,5.744,18.632a1.148,1.148,0,0,0,1.624,1.624L13,14.624l5.632,5.632a1.148,1.148,0,0,0,1.624-1.624L14.624,13l5.632-5.632A1.154,1.154,0,0,0,20.256,5.756Z" transform="translate(0 0)" fill="#aaa"/>
</svg>
