<svg id="group" xmlns="http://www.w3.org/2000/svg" width="28.516" height="28.516" viewBox="0 0 28.516 28.516">
  <path id="Контур_17" data-name="Контур 17" d="M0,0H28.516V28.516H0Z" fill="none"/>
  <path id="Контур_18" data-name="Контур 18" d="M18.822,12.129a3.564,3.564,0,1,0-3.564-3.564A3.55,3.55,0,0,0,18.822,12.129Zm-9.505,0A3.564,3.564,0,1,0,5.753,8.564,3.55,3.55,0,0,0,9.317,12.129Zm0,2.376C6.549,14.505,1,15.9,1,18.664v1.782a1.192,1.192,0,0,0,1.188,1.188H16.446a1.192,1.192,0,0,0,1.188-1.188V18.664C17.634,15.9,12.085,14.505,9.317,14.505Zm9.505,0c-.345,0-.737.024-1.153.059.024.012.036.036.048.048a4.942,4.942,0,0,1,2.293,4.052v1.782a3.57,3.57,0,0,1-.214,1.188h6.155a1.192,1.192,0,0,0,1.188-1.188V18.664C27.139,15.9,21.591,14.505,18.822,14.505Z" transform="translate(0.188 0.941)" fill="#fff"/>
</svg>
