<svg id="help" xmlns="http://www.w3.org/2000/svg" width="29.706" height="29.706" viewBox="0 0 29.706 29.706">
  <path id="Контур_19" data-name="Контур 19" d="M0,0H29.706V29.706H0Z" fill="none"/>
  <path id="Контур_20" data-name="Контур 20" d="M14.377,2A12.377,12.377,0,1,0,26.755,14.377,12.382,12.382,0,0,0,14.377,2Zm0,22.279a9.9,9.9,0,1,1,9.9-9.9A9.915,9.915,0,0,1,14.377,24.279ZM13.14,19.328h2.475V21.8H13.14ZM15.132,7a4.953,4.953,0,0,0-5.483,3.453A1.122,1.122,0,0,0,10.726,11.9h.248a1.191,1.191,0,0,0,1.089-.829A2.478,2.478,0,0,1,14.91,9.488a2.5,2.5,0,0,1,1.943,2.6c-.124,1.659-2.005,2.018-3.032,3.565,0,.012-.012.012-.012.025s-.025.037-.037.062a4.123,4.123,0,0,0-.309.619c-.012.037-.037.062-.05.1a.789.789,0,0,0-.025.087,4.6,4.6,0,0,0-.248,1.547h2.475a2.629,2.629,0,0,1,.347-1.324c.025-.037.037-.074.062-.111a3.414,3.414,0,0,1,.347-.483c.012-.012.025-.037.037-.05a4.35,4.35,0,0,1,.408-.421c1.188-1.126,2.8-2.042,2.463-4.406A5.044,5.044,0,0,0,15.132,7Z" transform="translate(0.475 0.475)" fill="#fff"/>
</svg>
